<?xml version="1.0" encoding="UTF-8" standalone="no"?><!DOCTYPE svg PUBLIC "-//W3C//DTD SVG 1.1//EN" "http://www.w3.org/Graphics/SVG/1.1/DTD/svg11.dtd"><svg width="100%" height="100%" viewBox="0 0 505 267" version="1.1" xmlns="http://www.w3.org/2000/svg" xmlns:xlink="http://www.w3.org/1999/xlink" xml:space="preserve" xmlns:serif="http://www.serif.com/" style="fill-rule:evenodd;clip-rule:evenodd;stroke-linejoin:round;stroke-miterlimit:1.41421;"><g><path d="M101.617,177.779c0,-19.504 -13.029,-31.375 -32.105,-31.375c-19.075,0 -32.108,11.663 -32.108,31.375c0,19.709 12.875,31.375 32.109,31.375c19.229,0 32.104,-11.666 32.104,-31.375Zm-98.634,0c0,-38.958 26.275,-70.121 66.53,-70.121c40.25,0 66.575,31.375 66.575,70.121c-0.001,38.742 -26.271,70.117 -66.576,70.117c-40.308,0 -66.529,-30.958 -66.529,-70.117Zm442.25,-13.65c0,11.925 1.05,38.434 18.284,38.434c9.354,0 13.821,-9.884 13.821,-18.405c0,-15.32 -8.092,-29.595 -23.805,-29.595l-8.304,0l0,9.566l0.004,0Zm39.621,-9.358l0,0.525c13.608,8.575 19.075,24.154 19.075,40.05c0,23.583 -13.558,44.917 -39.15,44.917c-43.875,0 -44.612,-52.967 -44.612,-85.438c-13.875,0 -22.704,11.45 -22.704,24.888c0.222,12.291 5.863,23.876 15.399,31.633l-21.387,20.916c-13.686,-15.271 -21.072,-35.185 -20.654,-55.687c0,-45.438 23.229,-57.517 65.475,-57.517l64.479,0l0,35.713l-15.921,0Z" style="fill:#002b37;fill-rule:nonzero;"/><path d="M162.575,0l52.175,0l0,111.479l0.683,0c11.825,-16.262 32.054,-22.121 53.6,-22.121c48.029,0 77.246,42.929 77.246,89.675c0,51.034 -33.262,86.85 -83.133,86.85c-20.398,-0.175 -39.591,-9.851 -51.863,-26.146l-0.683,0l0,22.225l-48.025,0l0,-261.962Zm89.8,220.183c26.275,0 41.721,-17.308 41.721,-42.562c0,-25.254 -15.763,-42.563 -41.721,-42.563c-25.958,0 -41.775,17.254 -41.775,42.721c0,25.463 15.763,42.563 41.775,42.563l0,-0.159Z" style="fill:#002b37;"/></g></svg>